{
  "asset": {
    "generator": "Khronos glTF Blender I/O v4.4.56",
    "version": "2.0"
  },
  "scene": 0,
  "scenes": [
    {
      "name": "Scene",
      "nodes": [
        0,
        1,
        2
      ]
    }
  ],
  "nodes": [
    {
      "mesh": 0,
      "name": "shadeGray ",
      "rotation": [
        0,
        0.7071068286895752,
        0.7071068286895752,
        3.0908619663705394e-8
      ],
      "scale": [
        0.5000001192092896,
        0.5000000596046448,
        0.5000000596046448
      ],
      "translation": [
        0.000009059906005859375,
        0.9808398485183716,
        1.6856509447097778
      ]
    },
    {
      "mesh": 1,
      "name": "shadeWhite",
      "rotation": [
        0,
        0.7071068286895752,
        0.7071068286895752,
        3.0908619663705394e-8
      ],
      "scale": [
        0.5000001192092896,
        0.5000000596046448,
        0.5000000596046448
      ],
      "translation": [
        -0.37780433893203735,
        0.9808398485183716,
        2.388988733291626
      ]
    },
    {
      "mesh": 2,
      "name": "shadeRed",
      "rotation": [
        0,
        0.7071068286895752,
        0.7071068286895752,
        3.0908619663705394e-8
      ],
      "scale": [
        0.5000001192092896,
        0.5000000596046448,
        0.5000000596046448
      ],
      "translation": [
        -0.3778133988380432,
        0.9889780282974243,
        0.41966304183006287
      ]
    }
  ],
  "meshes": [
    {
      "name": "Circle",
      "primitives": [
        {
          "attributes": {
            "POSITION": 0,
            "NORMAL": 1,
            "TEXCOORD_0": 2
          },
          "indices": 3
        }
      ]
    },
    {
      "name": "Circle.001",
      "primitives": [
        {
          "attributes": {
            "POSITION": 4,
            "NORMAL": 5,
            "TEXCOORD_0": 6
          },
          "indices": 7
        }
      ]
    },
    {
      "name": "Sphere.001",
      "primitives": [
        {
          "attributes": {
            "POSITION": 8,
            "NORMAL": 9,
            "TEXCOORD_0": 10
          },
          "indices": 11
        }
      ]
    }
  ],
  "accessors": [
    {
      "bufferView": 0,
      "componentType": 5126,
      "count": 144,
      "max": [
        1.755626916885376,
        1.3081419467926025,
        1
      ],
      "min": [
        -0.38054031133651733,
        -2.777971029281616,
        -1
      ],
      "type": "VEC3"
    },
    {
      "bufferView": 1,
      "componentType": 5126,
      "count": 144,
      "type": "VEC3"
    },
    {
      "bufferView": 2,
      "componentType": 5126,
      "count": 144,
      "type": "VEC2"
    },
    {
      "bufferView": 3,
      "componentType": 5123,
      "count": 840,
      "type": "SCALAR"
    },
    {
      "bufferView": 4,
      "componentType": 5126,
      "count": 176,
      "max": [
        1.227209448814392,
        1.581742286682129,
        1.227209448814392
      ],
      "min": [
        -1.227209448814392,
        -3.8771631717681885,
        -1.227209448814392
      ],
      "type": "VEC3"
    },
    {
      "bufferView": 5,
      "componentType": 5126,
      "count": 176,
      "type": "VEC3"
    },
    {
      "bufferView": 6,
      "componentType": 5126,
      "count": 176,
      "type": "VEC2"
    },
    {
      "bufferView": 7,
      "componentType": 5123,
      "count": 1044,
      "type": "SCALAR"
    },
    {
      "bufferView": 8,
      "componentType": 5126,
      "count": 158,
      "max": [
        0.30328360199928284,
        1.473931908607483,
        2.0450077056884766
      ],
      "min": [
        -0.3033199608325958,
        -1.031275987625122,
        -2.0450074672698975
      ],
      "type": "VEC3"
    },
    {
      "bufferView": 9,
      "componentType": 5126,
      "count": 158,
      "type": "VEC3"
    },
    {
      "bufferView": 10,
      "componentType": 5126,
      "count": 158,
      "type": "VEC2"
    },
    {
      "bufferView": 11,
      "componentType": 5123,
      "count": 888,
      "type": "SCALAR"
    }
  ],
  "bufferViews": [
    {
      "buffer": 0,
      "byteLength": 1728,
      "byteOffset": 0,
      "target": 34962
    },
    {
      "buffer": 0,
      "byteLength": 1728,
      "byteOffset": 1728,
      "target": 34962
    },
    {
      "buffer": 0,
      "byteLength": 1152,
      "byteOffset": 3456,
      "target": 34962
    },
    {
      "buffer": 0,
      "byteLength": 1680,
      "byteOffset": 4608,
      "target": 34963
    },
    {
      "buffer": 0,
      "byteLength": 2112,
      "byteOffset": 6288,
      "target": 34962
    },
    {
      "buffer": 0,
      "byteLength": 2112,
      "byteOffset": 8400,
      "target": 34962
    },
    {
      "buffer": 0,
      "byteLength": 1408,
      "byteOffset": 10512,
      "target": 34962
    },
    {
      "buffer": 0,
      "byteLength": 2088,
      "byteOffset": 11920,
      "target": 34963
    },
    {
      "buffer": 0,
      "byteLength": 1896,
      "byteOffset": 14008,
      "target": 34962
    },
    {
      "buffer": 0,
      "byteLength": 1896,
      "byteOffset": 15904,
      "target": 34962
    },
    {
      "buffer": 0,
      "byteLength": 1264,
      "byteOffset": 17800,
      "target": 34962
    },
    {
      "buffer": 0,
      "byteLength": 1776,
      "byteOffset": 19064,
      "target": 34963
    }
  ],
  "buffers": [
    {
      "uri": "roket_data.bin",
      "byteLength": 20840
    }
  ]
}